<?xml version="1.0" standalone="no"?>
<!DOCTYPE svg PUBLIC "-//W3C//DTD SVG 20010904//EN"
 "http://www.w3.org/TR/2001/REC-SVG-20010904/DTD/svg10.dtd">
<svg version="1.0" xmlns="http://www.w3.org/2000/svg"
 width="840.000000pt" height="881.000000pt" viewBox="0 0 840.000000 881.000000"
 preserveAspectRatio="xMidYMid meet">

<g transform="translate(0.000000,881.000000) scale(0.100000,-0.100000)"
fill="#000000" stroke="none">
<path d="M1455 8391 c-249 -42 -489 -150 -685 -309 -283 -229 -491 -565 -552
-890 -20 -107 -17 -487 5 -589 68 -316 234 -594 490 -821 157 -140 326 -239
517 -303 153 -51 223 -60 460 -60 280 -1 316 5 564 98 l149 56 24 -29 c113
-136 253 -335 298 -424 l29 -55 8 -295 c11 -403 2 -973 -17 -1037 -23 -76
-299 -474 -341 -490 -8 -3 -68 15 -133 40 -257 100 -262 101 -556 102 -215 0
-274 -3 -343 -18 -325 -72 -583 -233 -840 -527 -235 -269 -347 -619 -329
-1030 8 -167 20 -240 58 -355 164 -491 566 -876 1054 -1008 209 -56 593 -48
819 18 373 109 745 432 920 799 99 206 130 360 131 646 0 270 -11 327 -116
593 -22 53 -39 99 -39 102 0 9 188 154 295 227 221 151 160 141 875 141 581 0
597 -1 662 -22 114 -37 498 -307 498 -351 0 -11 -14 -54 -31 -97 -100 -249
-139 -481 -118 -718 32 -381 174 -681 451 -952 206 -202 459 -341 734 -405 82
-18 536 -18 618 0 175 41 368 124 521 226 113 76 287 243 379 366 121 160 222
381 263 572 25 119 25 497 0 616 -51 236 -177 486 -337 665 -245 273 -504 427
-840 498 -152 32 -451 33 -592 0 -91 -21 -221 -62 -352 -112 l-59 -23 -40 45
c-50 56 -191 253 -245 340 -81 134 -100 243 -83 484 14 203 14 385 0 592 -12
173 -3 290 28 382 24 71 189 316 305 450 l37 43 148 -55 c243 -91 280 -98 539
-98 306 -1 453 30 679 142 147 72 247 146 388 286 142 141 224 251 297 398
113 227 143 368 144 660 0 296 -29 429 -145 661 -82 166 -187 305 -332 438
-127 118 -193 166 -327 235 -233 120 -385 155 -685 155 -224 0 -327 -14 -478
-64 -247 -83 -463 -232 -661 -455 -172 -195 -287 -426 -333 -675 -14 -74 -17
-145 -17 -320 1 -259 10 -309 103 -545 48 -123 50 -130 33 -148 -26 -29 -282
-219 -365 -271 -126 -78 -112 -77 -814 -74 -563 3 -622 5 -662 21 -73 29 -337
212 -439 303 l-42 39 51 130 c28 72 63 173 77 225 24 89 25 111 26 330 1 261
-9 339 -66 498 -82 233 -214 432 -408 615 -202 190 -445 317 -715 373 -81 17
-462 27 -540 15z m455 -255 c431 -66 826 -405 970 -834 77 -232 81 -522 9
-757 -28 -94 -69 -185 -83 -185 -15 0 -6 -6 -346 241 -157 114 -307 227 -334
251 -43 39 -48 49 -62 117 -9 41 -13 83 -10 95 3 12 46 66 96 121 164 180 264
317 295 404 13 39 13 43 -6 62 -23 23 -38 21 -119 -22 -77 -41 -192 -129 -327
-250 -63 -57 -124 -108 -134 -113 -12 -6 -39 -4 -73 4 -73 17 -170 9 -230 -20
-69 -33 -157 -119 -195 -190 -39 -74 -49 -146 -31 -239 8 -41 9 -74 4 -83 -5
-9 -56 -67 -113 -131 -134 -149 -213 -254 -257 -343 -30 -60 -34 -75 -25 -93
17 -30 53 -27 130 14 87 46 193 127 334 255 64 57 124 107 134 111 10 3 40 0
68 -7 27 -8 60 -14 72 -14 29 0 68 -41 172 -179 92 -122 355 -487 386 -534
l17 -27 -55 -25 c-283 -130 -663 -138 -957 -20 -397 159 -686 502 -770 913
-26 128 -28 334 -5 467 86 494 479 899 975 1005 107 23 336 26 470 6z m5010 0
c432 -66 825 -404 970 -836 58 -173 77 -421 45 -603 -104 -599 -624 -1037
-1230 -1037 -174 0 -349 36 -493 101 -61 27 -63 29 -50 52 18 33 384 535 453
622 64 80 76 88 168 108 67 14 68 14 104 -10 20 -14 78 -63 129 -110 165 -153
345 -273 408 -273 100 0 3 182 -245 457 -57 64 -108 122 -113 131 -5 9 -4 42
4 83 7 37 10 92 7 122 -11 110 -103 235 -220 298 -57 31 -69 34 -147 33 -47 0
-103 -4 -126 -8 l-41 -8 -119 107 c-141 126 -267 223 -344 264 -82 43 -96 45
-119 22 -21 -21 -21 -21 -2 -70 34 -90 113 -196 329 -441 34 -39 62 -78 62
-88 0 -50 -31 -157 -52 -179 -49 -54 -679 -513 -703 -513 -7 0 -24 26 -38 58
-81 185 -116 400 -96 596 30 305 150 561 363 772 181 181 382 291 626 344 107
23 335 26 470 6z m-5034 -5001 c161 -28 362 -101 356 -130 -5 -26 -482 -676
-518 -706 -10 -8 -55 -23 -99 -32 l-80 -17 -37 27 c-20 16 -81 68 -135 117
-125 114 -236 196 -317 236 -70 35 -92 36 -112 4 -30 -45 81 -217 285 -444
l113 -125 -8 -50 c-17 -103 -10 -196 17 -255 36 -76 106 -150 181 -190 51 -28
76 -34 140 -38 46 -3 96 1 122 8 57 16 62 12 200 -113 140 -127 251 -210 342
-255 74 -36 95 -37 113 -4 8 15 3 33 -19 81 -50 104 -129 209 -294 390 -50 55
-86 103 -86 115 0 12 7 53 14 91 13 62 20 75 58 109 35 31 623 464 666 490 21
13 40 -11 71 -92 146 -380 102 -794 -122 -1134 -74 -113 -233 -276 -337 -345
-146 -97 -304 -164 -475 -199 -107 -22 -345 -25 -444 -5 -274 54 -497 175
-687 373 -228 238 -344 524 -344 851 0 270 63 485 207 700 187 282 495 481
838 541 108 19 283 19 391 1z m5043 -6 c193 -28 424 -139 593 -286 277 -241
428 -573 428 -943 0 -349 -131 -655 -383 -897 -316 -304 -766 -420 -1186 -308
-466 125 -823 517 -907 995 -24 142 -15 380 20 514 31 115 83 246 98 246 21 0
673 -475 711 -518 17 -19 47 -132 47 -178 0 -12 -36 -60 -86 -115 -162 -176
-280 -336 -309 -418 -11 -34 -11 -42 1 -60 20 -28 33 -27 112 13 89 45 200
129 344 258 65 59 127 109 138 113 11 4 37 1 57 -6 20 -6 68 -12 106 -11 57 0
80 6 134 32 79 39 158 117 198 196 26 50 30 70 30 134 -1 41 -5 98 -9 125 l-8
50 113 125 c143 159 223 266 267 358 l35 74 -21 20 c-19 19 -25 20 -60 10 -79
-24 -244 -144 -425 -310 -48 -45 -96 -83 -106 -87 -10 -3 -45 1 -77 10 -32 8
-66 15 -75 15 -25 0 -81 70 -332 415 -156 213 -223 313 -216 321 31 38 262
111 389 124 97 9 269 4 379 -11z"/>
</g>
</svg>
